# xmcd CD database file
#
# Track frame offsets:
#	150
#	18452
#	34402
#	52690
#	81730
#	104192
#	122195
#	132390
#	149662
#	168350
#	190100
#	211477
#	235980
#	254035
#	274577
#	294257
#
# Disc length: 4159 seconds
#
# Revision: 0
# Processed by: cddbd v1.5.1PL2 Copyright (c) Steve Scherf et al.
# Submitted via: CDex 1.51
#
DISCID=fe103d10
DTITLE=Various Artist - The Kajmere Sound Vol.1
DYEAR=2006
DGENRE=Soul
TTITLE0=Waitin' - Choklate feat. Chali 2na
TTITLE1=Remember The Love - Adriana Evans
TTITLE2=Tread Lightly - n8e feat. Jon B
TTITLE3=Sum Same - The Rebirth
TTITLE4=Anywhere - MotionLab feat. Reggie Watts
TTITLE5=Bigger Than You - Choklate
TTITLE6=Hidden Gem - Thes One of People Under The Stairs
TTITLE7=Revolution - Afrodisiac Sound System feat. Raashan Ahmad of Crown City Rockers
TTITLE8=Rock On - n8e feat. Raashan Ahmad and Medusa
TTITLE9=So Excited - MotionLab feat. Reggie Watts
TTITLE10=Our Time To Shine - Modern Groove Assembly feat. Sy Smith
TTITLE11=Somehow - DJ Tonk feat. Pismo
TTITLE12=Sunday Grinnin' - Nafro
TTITLE13=Love - The Globetroddas
TTITLE14=Back In '92 - Presto and LOWD
TTITLE15=Beautiful - DJ Tonk feat. Raashan Ahmad
EXTD=YEAR: 2006
EXTT0=
EXTT1=
EXTT2=
EXTT3=
EXTT4=
EXTT5=
EXTT6=
EXTT7=
EXTT8=
EXTT9=
EXTT10=
EXTT11=
EXTT12=
EXTT13=
EXTT14=
EXTT15=
PLAYORDER=
